# xmcd CD database file
#
# Track frame offsets:
#	150
#	14721
#	28007
#	40294
#	66385
#	77563
#	93478
#	104058
#	113455
#	126557
#
# Disc length: 1923 seconds
#
# Revision: 0
# Processed by: cddbd v1.5.2PL0 Copyright (c) Steve Scherf et al.
# Submitted via: CDex 1.51
#
DISCID=8a07810a
DTITLE=The Animals - - The Animals! Animal Tracks - US
DYEAR=1965
DGENRE=Blues
TTITLE0=We've Gotta Get Out Of This Place
TTITLE1=Take It Easy
TTITLE2=Bring It On Home To Me
TTITLE3=The Story Of Bo Diddley
TTITLE4=Don't Let Me Be Misunderstood
TTITLE5=I Can't Believe It
TTITLE6=Club-A-Gogo
TTITLE7=Roberta
TTITLE8=Bury Me Body
TTITLE9=For Miss Caulker
EXTD=YEAR: 1965
EXTT0=
EXTT1=
EXTT2=
EXTT3=
EXTT4=
EXTT5=
EXTT6=
EXTT7=
EXTT8=
EXTT9=
PLAYORDER=
